<svg xmlns="http://www.w3.org/2000/svg" width="212" height="58" fill="none"><path fill="#fff" fill-rule="evenodd" d="M58.036 10.716a16.274 16.274 0 0 1 6.68-1.428c9.038 0 16.365 7.327 16.365 16.365 0 7.498-5.043 13.813-11.924 15.747-.454 8.636-7.595 15.495-16.343 15.495a16.313 16.313 0 0 1-11.901-5.14 16.313 16.313 0 0 1-11.902 5.14c-8.748 0-15.889-6.866-16.343-15.495C5.788 39.466.744 33.15.744 25.653c0-9.038 7.327-16.365 16.365-16.365 2.38 0 4.642.513 6.68 1.428C27.025 4.556 33.474.36 40.913.36c7.438 0 13.887 4.196 17.123 10.355Zm-23.09 30.216 20.933-9.567c1.867-.855 1.867-3.19 0-4.046l-20.932-9.566c-1.733-.789-3.809.312-3.809 2.023v19.132c0 1.711 2.076 2.82 3.809 2.023ZM98.399 4.029c-2.09 0-4.552.35-6.643.952h-.007c-1.324.38-2.15 1.264-2.15 3.035 0 .774.037 1.448.081 2.245.064 1.157.142 2.573.142 4.933 0 1.794-.092 3.141-.172 4.292-.059.859-.11 1.607-.11 2.35 0 1.898.67 2.88 2.849 3.259 2.053.32 3.355.446 5.251.446 8.354 0 13.382-3.355 13.382-10.756 0-6.39-3.578-10.756-12.623-10.756Zm-.097 5.69c3.415 0 4.649 1.518 4.649 5.096l-.007-.008c0 3.355-2.179 4.872-5.252 4.872h-.439c-.03-1.234-.059-2.655-.059-4.522 0-1.74.037-3.57.097-5.408.35-.03.662-.03 1.011-.03Zm24.972 8.354c1.108 2.216 2.246 3.957 3.228 5.192v.007c1.265 1.585 2.879 2.373 5.096 2.373 2.216 0 4.21-1.272 4.21-3.072 0-1.049-.506-2.15-3.102-3.481-1.302-.662-2.12-1.168-3.102-1.867 3.608-.952 5.661-3.005 5.661-6.204 0-3.794-2.686-6.866-10.027-6.866-2.18 0-4.843.156-7.781.506-2.091.253-2.946 1.331-2.946 3.355 0 .857.007 1.89.014 2.974V11.001c.008 1.2.016 2.465.016 3.628 0 2.053-.097 3.49-.177 4.684-.057.848-.106 1.573-.106 2.308 0 2.217 1.265 3.511 3.987 3.511 2.47 0 3.891-1.332 3.891-3.89 0-1.05 0-1.905-.03-3.199.208 0 .409.008.606.015.19.008.376.015.562.015Zm.758-8.54c2.344 0 3.132.543 3.132 1.838 0 1.205-.855 1.963-3.384 1.963-.506 0-1.072 0-1.644-.03 0-1.236.028-2.402.057-3.6l.002-.104c.67-.037 1.302-.067 1.837-.067Zm27.538 15.65a85.542 85.542 0 0 0-3.407-.08c-1.188 0-2.585.048-3.812.091-.962.034-1.82.065-2.392.065-2.09 0-2.975-.886-2.975-2.753 0-.966.045-2.042.095-3.227.061-1.45.128-3.064.128-4.836 0-1.477-.051-2.67-.1-3.832-.047-1.103-.093-2.179-.093-3.443 0-1.867.915-2.909 3.102-2.909 1.03 0 1.813.042 2.641.085.929.05 1.914.101 3.369.101 1.432 0 2.434-.042 3.397-.083a62.826 62.826 0 0 1 2.866-.073c2.18 0 2.946 1.012 2.946 2.723 0 1.867-.982 3.161-2.975 3.161-.905 0-1.741-.042-2.544-.083a43.137 43.137 0 0 0-2.172-.073c-1.026 0-1.86.025-2.757.053l-.219.006c-.03.603-.059 1.168-.097 1.74 1.012.03 1.927.03 2.53.03a20.5 20.5 0 0 0 1.362-.07 25.262 25.262 0 0 1 1.769-.085c1.8 0 2.812.758 2.812 2.752 0 2.216-1.041 3.072-2.812 3.072-.523 0-1.029-.026-1.519-.05-.459-.024-.902-.047-1.33-.047-.602 0-1.711 0-2.849.06l.008.163v.002c.027.598.052 1.15.052 1.702l.383.012c.791.025 1.487.047 2.116.047.81 0 1.548-.028 2.325-.058.866-.033 1.78-.068 2.897-.068 1.927 0 3.102.826 3.102 3.132 0 1.865-1.039 2.846-2.814 2.849-1.072 0-2.039-.038-3.033-.076Zm3.033.076h.017-.022.005Zm19.457-3.629c.048.196.097.395.146.586v.007c.632 2.463 1.8 3.288 4.017 3.288 3.042 0 4.336-1.294 4.336-2.878 0-.945-.282-1.83-1.011-3.541-2.158-4.97-2.663-6.234-4.463-11.515-.953-2.782-2.344-3.481-5.855-3.481-3.258 0-4.805.952-5.913 3.89a882.486 882.486 0 0 0-1.089 2.908l-.004.008c-1.103 2.958-1.754 4.701-3.304 8.413-.818 1.956-1.041 2.782-1.041 3.54 0 1.459.826 2.47 3.199 2.47 2.373 0 3.6-.699 4.173-2.752.071-.285.152-.56.231-.833.062-.21.123-.417.178-.625a62.918 62.918 0 0 1 3.161-.097c.826 0 2.024 0 3.102.06.044.173.09.36.137.552Zm-3.075-10.735c.565 1.77 1.041 3.384 1.547 5.184h-3.384a109.072 109.072 0 0 1 1.837-5.184Zm32.03 10.726c0-1.061.066-2.138.13-3.198.062-1.028.123-2.04.123-3.006v-1.644l-.109.342-.002.004c-.877 2.732-1.737 5.411-2.009 6.11-.729 1.838-1.8 2.627-3.481 2.627-1.867 0-3.161-.73-3.704-2.56a130.197 130.197 0 0 1-1.711-6.36v.03c.013 1.362.041 2.577.067 3.719v.002c.031 1.353.059 2.604.059 3.874 0 2.15-1.205 3.608-3.54 3.608-2.656 0-3.794-1.168-3.794-3.444 0-1.108.053-2.195.107-3.31.057-1.177.116-2.384.116-3.682 0-.856-.032-2.098-.063-3.34v-.003c-.032-1.24-.063-2.479-.063-3.33 0-2.432 1.517-4.016 4.805-4.016 3.072 0 4.619.699 5.601 3.384 1.079 3.035 1.614 4.523 2.373 6.39.952-2.217 1.614-3.89 2.566-6.33.982-2.53 2.626-3.385 5.535-3.385 3.451 0 4.902 1.584 4.902 4.367 0 .89-.025 1.74-.052 2.69v.002c-.035 1.206-.075 2.575-.075 4.396 0 1 .034 1.829.07 2.716.042 1.022.086 2.12.086 3.645 0 2.305-1.517 3.637-3.86 3.637-2.812 0-4.084-1.108-4.084-3.92l.007-.015ZM89.539 48.787c0 2.782 1.324 3.987 3.793 3.987l.008-.008c2.819 0 4.113-1.517 4.113-4.046v-.001c0-.855 0-1.584-.03-2.469.38.03.73.03 1.012.03 7.402 0 11.701-1.867 11.701-7.781 0-4.62-3.541-7.119-11.545-7.119-2.402 0-4.143.164-6.233.447-1.711.223-2.693 1.398-2.693 3.325 0 .572.02 1.144.043 1.837v.001c.037 1.073.084 2.438.084 4.551 0 2.676-.098 4.214-.172 5.375-.045.705-.081 1.272-.081 1.87ZM98.3 36.632c2.686 0 3.697.759 3.697 2.343l.008-.007c0 1.39-.982 2.343-3.86 2.343h-.76c0-.853.008-1.65.016-2.432.007-.752.014-1.489.014-2.247h.885Zm23.821 16.105c-2.128 0-3.447.045-4.497.082h-.001c-.694.024-1.271.044-1.887.044-1.8 0-2.945-.826-2.945-2.82 0-.893.039-1.68.085-2.59.063-1.248.138-2.728.138-5.034 0-1.615-.053-2.74-.103-3.819-.046-.992-.091-1.945-.091-3.203 0-2.626 1.518-3.764 3.988-3.764 2.596 0 3.92 1.235 3.92 3.578a75.3 75.3 0 0 1-.085 3.181 94.213 94.213 0 0 0-.101 4.064c0 1.323.045 2.386.101 3.7v.012l.017.384.008.204h1.421c1.139 0 2.007-.048 2.781-.091a31.537 31.537 0 0 1 1.771-.065c2.344 0 3.259 1.36 3.259 3.131 0 2.09-1.109 3.132-3.385 3.132-.527 0-1.053-.024-1.644-.051a55.741 55.741 0 0 0-2.75-.075Zm24.29-3.561v.002c.037.155.075.312.114.464v.007c.632 2.463 1.8 3.288 4.017 3.288 3.042 0 4.336-1.294 4.336-2.878 0-.945-.282-1.83-1.011-3.541-2.158-4.97-2.663-6.234-4.463-11.515-.953-2.782-2.344-3.481-5.855-3.481-3.258 0-4.805.952-5.913 3.89-.423 1.121-.776 2.069-1.093 2.916v.001c-1.103 2.957-1.754 4.7-3.304 8.412-.818 1.956-1.041 2.782-1.041 3.54 0 1.459.826 2.47 3.199 2.47 2.373 0 3.6-.699 4.173-2.752.071-.285.152-.56.231-.832l.001-.001c.061-.21.122-.417.177-.625a62.566 62.566 0 0 1 3.161-.097c.826 0 2.024 0 3.102.06.058.209.113.44.169.672Zm-3.107-10.856a150.07 150.07 0 0 1 1.547 5.185h-3.384a109.15 109.15 0 0 1 1.837-5.185Zm17.275 8.627.001-.001c.022-.47.044-.933.056-1.358-2.247-3.161-3.229-4.716-4.969-7.654-1.168-1.964-1.391-2.753-1.391-3.578 0-1.585 1.644-2.656 4.017-2.656 1.614 0 2.432.603 3.451 2.53.509.981.942 1.833 1.337 2.61l.001.001a128.46 128.46 0 0 0 1.92 3.681c1.205-1.837 1.897-3.481 2.782-5.854.789-2.15 1.644-3.102 3.102-3.102 2.247 0 4.114 1.548 4.114 3.452 0 .982-.476 2.343-1.8 4.463-2.091 3.384-2.782 4.337-4.746 6.71.03 1.011.059 2.053.059 2.811 0 2.217-1.547 3.831-3.987 3.831-2.626 0-4.017-1.264-4.017-3.764 0-.654.036-1.397.07-2.122Z" clip-rule="evenodd"/></svg>